<?xml version="1.0"?>

<svg width="100%" height="100%" viewBox="0 0 959 237" version="1.1" xmlns="http://www.w3.org/2000/svg" xmlns:xlink="http://www.w3.org/1999/xlink" xml:space="preserve" xmlns:serif="http://www.serif.com/" style="fill-rule:evenodd;clip-rule:evenodd;stroke-linejoin:round;stroke-miterlimit:2;">
    <g transform="matrix(1,0,0,1,-141.90141,-121.447445)">
        <g transform="matrix(1,0,0,1,-117,23)">
            <g transform="matrix(0.746291,0,0,0.746291,181.855616,-69.299362)">
                <g transform="matrix(262.456714,0,0,262.456714,482,474)">
                    <rect x="0.097" y="-0.7" width="0.124" height="0.7" style="fill:#FFFFFF;fill-rule:nonzero;"></rect>
                </g>
                <g transform="matrix(262.456714,0,0,262.456714,557.549812,474)">
                    <path d="M0.246,0.006C0.202,0.006 0.159,0.001 0.118,-0.011C0.077,-0.023 0.045,-0.037 0.022,-0.053L0.069,-0.145C0.092,-0.13 0.121,-0.117 0.154,-0.107C0.188,-0.097 0.221,-0.092 0.254,-0.092C0.294,-0.092 0.324,-0.098 0.342,-0.109C0.359,-0.119 0.368,-0.134 0.368,-0.153C0.368,-0.168 0.362,-0.18 0.351,-0.188C0.339,-0.195 0.323,-0.202 0.303,-0.206C0.284,-0.21 0.262,-0.214 0.239,-0.217C0.215,-0.22 0.191,-0.225 0.168,-0.23C0.144,-0.236 0.123,-0.244 0.103,-0.255C0.083,-0.266 0.068,-0.281 0.056,-0.299C0.044,-0.318 0.038,-0.343 0.038,-0.374C0.038,-0.407 0.047,-0.436 0.067,-0.461C0.086,-0.486 0.113,-0.505 0.147,-0.519C0.182,-0.533 0.223,-0.539 0.27,-0.539C0.306,-0.539 0.342,-0.535 0.378,-0.527C0.415,-0.519 0.445,-0.507 0.469,-0.493L0.422,-0.401C0.397,-0.416 0.371,-0.427 0.346,-0.432C0.32,-0.438 0.294,-0.441 0.269,-0.441C0.231,-0.441 0.202,-0.435 0.183,-0.424C0.164,-0.412 0.155,-0.397 0.155,-0.379C0.155,-0.363 0.161,-0.351 0.173,-0.342C0.185,-0.334 0.2,-0.328 0.22,-0.323C0.24,-0.318 0.261,-0.314 0.285,-0.311C0.308,-0.307 0.332,-0.303 0.355,-0.297C0.379,-0.291 0.401,-0.283 0.42,-0.273C0.44,-0.262 0.455,-0.248 0.467,-0.229C0.479,-0.211 0.485,-0.187 0.485,-0.157C0.485,-0.123 0.476,-0.094 0.456,-0.07C0.437,-0.046 0.409,-0.027 0.374,-0.014C0.338,-0 0.296,0.006 0.246,0.006Z" style="fill:#FFFFFF;fill-rule:nonzero;"></path>
                </g>
                <g transform="matrix(262.456714,0,0,262.456714,684.453522,474)">
                    <path d="M0.246,0.006C0.202,0.006 0.159,0.001 0.118,-0.011C0.077,-0.023 0.045,-0.037 0.022,-0.053L0.069,-0.145C0.092,-0.13 0.121,-0.117 0.154,-0.107C0.188,-0.097 0.221,-0.092 0.254,-0.092C0.294,-0.092 0.324,-0.098 0.342,-0.109C0.359,-0.119 0.368,-0.134 0.368,-0.153C0.368,-0.168 0.362,-0.18 0.351,-0.188C0.339,-0.195 0.323,-0.202 0.303,-0.206C0.284,-0.21 0.262,-0.214 0.239,-0.217C0.215,-0.22 0.191,-0.225 0.168,-0.23C0.144,-0.236 0.123,-0.244 0.103,-0.255C0.083,-0.266 0.068,-0.281 0.056,-0.299C0.044,-0.318 0.038,-0.343 0.038,-0.374C0.038,-0.407 0.047,-0.436 0.067,-0.461C0.086,-0.486 0.113,-0.505 0.147,-0.519C0.182,-0.533 0.223,-0.539 0.27,-0.539C0.306,-0.539 0.342,-0.535 0.378,-0.527C0.415,-0.519 0.445,-0.507 0.469,-0.493L0.422,-0.401C0.397,-0.416 0.371,-0.427 0.346,-0.432C0.32,-0.438 0.294,-0.441 0.269,-0.441C0.231,-0.441 0.202,-0.435 0.183,-0.424C0.164,-0.412 0.155,-0.397 0.155,-0.379C0.155,-0.363 0.161,-0.351 0.173,-0.342C0.185,-0.334 0.2,-0.328 0.22,-0.323C0.24,-0.318 0.261,-0.314 0.285,-0.311C0.308,-0.307 0.332,-0.303 0.355,-0.297C0.379,-0.291 0.401,-0.283 0.42,-0.273C0.44,-0.262 0.455,-0.248 0.467,-0.229C0.479,-0.211 0.485,-0.187 0.485,-0.157C0.485,-0.123 0.476,-0.094 0.456,-0.07C0.437,-0.046 0.409,-0.027 0.374,-0.014C0.338,-0 0.296,0.006 0.246,0.006Z" style="fill:#FFFFFF;fill-rule:nonzero;"></path>
                </g>
                <g transform="matrix(262.456714,0,0,262.456714,811.357232,474)">
                    <path d="M0.31,0.006C0.264,0.006 0.224,-0.002 0.19,-0.019C0.155,-0.036 0.128,-0.061 0.108,-0.096C0.089,-0.131 0.079,-0.175 0.079,-0.228L0.079,-0.533L0.199,-0.533L0.199,-0.243C0.199,-0.195 0.21,-0.159 0.232,-0.135C0.255,-0.111 0.286,-0.099 0.328,-0.099C0.357,-0.099 0.384,-0.105 0.406,-0.117C0.428,-0.13 0.446,-0.148 0.458,-0.172C0.471,-0.196 0.477,-0.227 0.477,-0.262L0.477,-0.533L0.596,-0.533L0.596,-0L0.483,-0L0.483,-0.143L0.503,-0.099C0.485,-0.065 0.458,-0.039 0.424,-0.021C0.389,-0.003 0.352,0.006 0.31,0.006Z" style="fill:#FFFFFF;fill-rule:nonzero;"></path>
                </g>
                <g transform="matrix(262.456714,0,0,262.456714,982.349745,474)">
                    <path d="M0.332,0.006C0.273,0.006 0.222,-0.005 0.177,-0.029C0.133,-0.052 0.099,-0.085 0.075,-0.126C0.051,-0.167 0.038,-0.214 0.038,-0.267C0.038,-0.32 0.05,-0.367 0.074,-0.408C0.098,-0.449 0.13,-0.481 0.172,-0.504C0.213,-0.528 0.26,-0.539 0.313,-0.539C0.365,-0.539 0.411,-0.528 0.452,-0.505C0.492,-0.482 0.524,-0.45 0.547,-0.409C0.57,-0.367 0.581,-0.319 0.581,-0.263C0.581,-0.258 0.581,-0.252 0.581,-0.246C0.58,-0.239 0.58,-0.233 0.579,-0.227L0.133,-0.227L0.133,-0.309L0.516,-0.309L0.469,-0.283C0.47,-0.314 0.463,-0.341 0.45,-0.365C0.436,-0.389 0.418,-0.408 0.394,-0.421C0.371,-0.435 0.344,-0.442 0.313,-0.442C0.282,-0.442 0.254,-0.435 0.231,-0.421C0.207,-0.408 0.188,-0.389 0.175,-0.365C0.162,-0.34 0.155,-0.312 0.155,-0.28L0.155,-0.261C0.155,-0.228 0.163,-0.199 0.178,-0.174C0.193,-0.149 0.214,-0.13 0.241,-0.116C0.268,-0.102 0.299,-0.095 0.335,-0.095C0.365,-0.095 0.393,-0.1 0.417,-0.11C0.441,-0.12 0.463,-0.135 0.481,-0.155L0.546,-0.08C0.522,-0.052 0.491,-0.03 0.455,-0.016C0.419,-0.001 0.378,0.006 0.332,0.006Z" style="fill:#FFFFFF;fill-rule:nonzero;"></path>
                </g>
                <g transform="matrix(262.456714,0,0,262.456714,1137.423942,474)">
                    <path d="M0.1,-0L0.1,-0.566C0.1,-0.621 0.116,-0.666 0.149,-0.699C0.181,-0.732 0.228,-0.748 0.289,-0.748C0.31,-0.748 0.331,-0.746 0.35,-0.741C0.369,-0.737 0.386,-0.729 0.4,-0.719L0.366,-0.63C0.357,-0.637 0.346,-0.642 0.334,-0.646C0.322,-0.65 0.309,-0.652 0.296,-0.652C0.27,-0.652 0.25,-0.645 0.236,-0.63C0.223,-0.615 0.216,-0.594 0.216,-0.565L0.216,-0.502L0.219,-0.449L0.219,-0L0.1,-0ZM0.012,-0.435L0.012,-0.531L0.364,-0.531L0.364,-0.435L0.012,-0.435Z" style="fill:#FFFFFF;fill-rule:nonzero;"></path>
                </g>
                <g transform="matrix(262.456714,0,0,262.456714,1236.148915,474)">
                    <path d="M0.124,0.2C0.098,0.2 0.072,0.196 0.046,0.188C0.021,0.179 -0.001,0.167 -0.018,0.151L0.03,0.064C0.043,0.075 0.057,0.084 0.073,0.091C0.089,0.098 0.106,0.101 0.123,0.101C0.146,0.101 0.164,0.095 0.178,0.084C0.193,0.072 0.206,0.053 0.218,0.025L0.249,-0.045L0.26,-0.06L0.463,-0.533L0.578,-0.533L0.326,0.045C0.31,0.085 0.292,0.116 0.272,0.139C0.251,0.161 0.229,0.177 0.205,0.187C0.18,0.196 0.153,0.2 0.124,0.2ZM0.237,0.019L-0.004,-0.533L0.119,-0.533L0.317,-0.07L0.237,0.019Z" style="fill:#FFFFFF;fill-rule:nonzero;"></path>
                </g>
                <g transform="matrix(262.456714,0,0,262.456714,1386.806921,474)">
                </g>
            </g>
            <g transform="matrix(0.707031,0,0,0.707031,0,-322)">
                <path d="M517.274,594.737L559.005,594.666C558.863,619.193 558.907,643.678 558.102,668.556C557.162,697.59 539.194,718.428 511.975,727.54C504.755,729.957 491.132,731.304 485.292,736.039C483.962,737.118 482.971,737.299 482.911,739.251C483.075,740.316 485.124,741.022 486.306,741.308C494.013,744.382 679.157,742.888 703.097,742.96L703.042,782.936C672.845,782.991 651.6,785.202 624.953,793.689C562.709,813.511 554.261,872.312 551.354,928.528C551.185,928.808 551.016,929.088 550.847,929.368L509.081,929.327C508.897,914.697 509.439,894.064 509.478,880.397C509.613,833.373 522.01,804.883 569.313,794.935C573.994,793.951 583.896,791.98 586.863,787.557C587.346,786.838 586.945,786.102 586.235,785.672C583.951,784.276 580.87,783.193 578.224,783.163C554.209,782.892 529.602,783.024 505.617,782.977L366.181,782.418L366.208,742.124C474.043,742.394 515.319,702.235 517.274,594.737Z" style="fill:#FFFFFF;fill-rule:nonzero;"></path>
            </g>
        </g>
    </g>
</svg>