<?xml version="1.0"?>

<svg width="100%" height="100%" viewBox="0 0 239 237" version="1.1" xmlns="http://www.w3.org/2000/svg" xmlns:xlink="http://www.w3.org/1999/xlink" xml:space="preserve" xmlns:serif="http://www.serif.com/" style="fill-rule:evenodd;clip-rule:evenodd;stroke-linejoin:round;stroke-miterlimit:2;">
    <g transform="matrix(1,0,0,1,-141.90141,-121.447445)">
        <g transform="matrix(1,0,0,1,-117,23)">
            <g transform="matrix(0.707031,0,0,0.707031,0,-322)">
                <path d="M517.274,594.737L559.005,594.666C558.863,619.193 558.907,643.678 558.102,668.556C557.162,697.59 539.194,718.428 511.975,727.54C504.755,729.957 491.132,731.304 485.292,736.039C483.962,737.118 482.971,737.299 482.911,739.251C483.075,740.316 485.124,741.022 486.306,741.308C494.013,744.382 679.157,742.888 703.097,742.96L703.042,782.936C672.845,782.991 651.6,785.202 624.953,793.689C562.709,813.511 554.261,872.312 551.354,928.528C551.185,928.808 551.016,929.088 550.847,929.368L509.081,929.327C508.897,914.697 509.439,894.064 509.478,880.397C509.613,833.373 522.01,804.883 569.313,794.935C573.994,793.951 583.896,791.98 586.863,787.557C587.346,786.838 586.945,786.102 586.235,785.672C583.951,784.276 580.87,783.193 578.224,783.163C554.209,782.892 529.602,783.024 505.617,782.977L366.181,782.418L366.208,742.124C474.043,742.394 515.319,702.235 517.274,594.737Z" style="fill:rgb(254,254,254);fill-rule:nonzero;"></path>
            </g>
        </g>
    </g>
</svg>